<?xml version="1.0" encoding="UTF-8"?>
<svg version="1.1" xmlns="http://www.w3.org/2000/svg" width="32" height="32">
<path d="M0 0 C1.33998047 0.06960937 1.33998047 0.06960937 2.70703125 0.140625 C3.60808594 0.17671875 4.50914063 0.2128125 5.4375 0.25 C6.12457031 0.29640625 6.81164062 0.3428125 7.51953125 0.390625 C7.51953125 2.370625 7.51953125 4.350625 7.51953125 6.390625 C5.86953125 6.720625 4.21953125 7.050625 2.51953125 7.390625 C2.18953125 8.710625 1.85953125 10.030625 1.51953125 11.390625 C3.49953125 11.390625 5.47953125 11.390625 7.51953125 11.390625 C7.18953125 13.700625 6.85953125 16.010625 6.51953125 18.390625 C4.86953125 18.390625 3.21953125 18.390625 1.51953125 18.390625 C1.51953125 23.010625 1.51953125 27.630625 1.51953125 32.390625 C-0.79046875 32.390625 -3.10046875 32.390625 -5.48046875 32.390625 C-5.48046875 27.770625 -5.48046875 23.150625 -5.48046875 18.390625 C-7.13046875 18.390625 -8.78046875 18.390625 -10.48046875 18.390625 C-10.48046875 16.080625 -10.48046875 13.770625 -10.48046875 11.390625 C-8.83046875 11.390625 -7.18046875 11.390625 -5.48046875 11.390625 C-5.54234375 10.318125 -5.60421875 9.245625 -5.66796875 8.140625 C-5.44535175 3.68828506 -4.77920444 0.75263062 0 0 Z " fill="#FFFFFF" transform="translate(17.48046875,-0.390625)"/>
</svg>
