<svg width="800" height="400" viewBox="0 0 800 400" xmlns="http://www.w3.org/2000/svg"><mask id="satori_om-id"><rect x="0" y="0" width="800" height="400" fill="#fff"/></mask><rect x="0" y="0" width="800" height="400" fill="#fff"/><mask id="satori_om-id-0"><rect x="0" y="88" width="800" height="224" fill="#fff"/></mask><rect x="0" y="88" width="800" height="224" fill="#f9fafb"/><mask id="satori_om-id-0-0"><rect x="0" y="88" width="800" height="224" fill="#fff"/></mask><mask id="satori_om-id-0-0-0"><rect x="32" y="140" width="358" height="120" fill="#fff"/></mask><mask id="satori_om-id-0-0-0-0"><rect x="32" y="140" width="358" height="40" fill="#fff"/></mask><path fill="#111827" d="M52.0 173.1L34.3 173.1L34.3 146.9L51.9 146.9L51.9 151.5L39.8 151.5L39.8 157.7L51.0 157.7L51.0 162.3L39.8 162.3L39.8 168.5L52.0 168.5L52.0 173.1ZM54.3 153.5L59.9 153.5L63.5 160.3L67.2 153.5L72.8 153.5L67.1 163.3L72.9 173.1L67.4 173.1L63.5 166.3L59.7 173.1L54.0 173.1L59.9 163.3L54.3 153.5ZM80.5 180.5L75.1 180.5L75.1 153.5L80.5 153.5L80.5 156.8L80.7 156.8Q81.1 156.0 81.7 155.1Q82.4 154.3 83.5 153.8Q84.6 153.2 86.3 153.2L86.3 153.2Q88.4 153.2 90.2 154.3Q92.1 155.4 93.1 157.7Q94.2 159.9 94.2 163.3L94.2 163.3Q94.2 166.6 93.2 168.8Q92.1 171.1 90.3 172.3Q88.5 173.4 86.3 173.4L86.3 173.4Q84.7 173.4 83.6 172.9Q82.5 172.4 81.8 171.6Q81.1 170.8 80.7 169.9L80.7 169.9L80.5 169.9L80.5 180.5ZM80.4 163.3L80.4 163.3Q80.4 165.0 80.9 166.3Q81.4 167.6 82.3 168.4Q83.2 169.1 84.5 169.1L84.5 169.1Q85.9 169.1 86.8 168.3Q87.7 167.6 88.2 166.3Q88.7 165.0 88.7 163.3L88.7 163.3Q88.7 161.6 88.2 160.3Q87.7 159.0 86.8 158.3Q85.9 157.5 84.5 157.5L84.5 157.5Q83.2 157.5 82.3 158.2Q81.4 158.9 80.9 160.2Q80.4 161.5 80.4 163.3ZM105.9 173.5L105.9 173.5Q102.9 173.5 100.7 172.2Q98.5 171.0 97.3 168.7Q96.2 166.5 96.2 163.4L96.2 163.4Q96.2 160.3 97.3 158.0Q98.5 155.8 100.7 154.5Q102.8 153.2 105.7 153.2L105.7 153.2Q107.6 153.2 109.3 153.8Q111.0 154.4 112.2 155.7Q113.5 156.9 114.2 158.8Q114.9 160.7 114.9 163.2L114.9 163.2L114.9 164.7L98.3 164.7L98.3 161.3L109.8 161.3Q109.8 160.1 109.3 159.2Q108.8 158.3 107.9 157.8Q107.0 157.3 105.8 157.3L105.8 157.3Q104.5 157.3 103.6 157.8Q102.6 158.4 102.1 159.4Q101.6 160.3 101.5 161.5L101.5 161.5L101.5 164.7Q101.5 166.1 102.1 167.2Q102.6 168.3 103.6 168.8Q104.6 169.4 106.0 169.4L106.0 169.4Q106.9 169.4 107.7 169.2Q108.4 168.9 108.9 168.4Q109.5 167.9 109.8 167.1L109.8 167.1L114.8 167.5Q114.4 169.3 113.2 170.6Q112.1 172.0 110.2 172.7Q108.3 173.5 105.9 173.5ZM123.0 173.1L117.6 173.1L117.6 153.5L122.8 153.5L122.8 156.9L123.1 156.9Q123.6 155.1 124.9 154.1Q126.1 153.2 127.8 153.2L127.8 153.2Q128.2 153.2 128.7 153.2Q129.1 153.3 129.5 153.4L129.5 153.4L129.5 158.2Q129.1 158.1 128.4 158.0Q127.7 157.9 127.2 157.9L127.2 157.9Q126.0 157.9 125.0 158.4Q124.1 158.9 123.6 159.9Q123.0 160.8 123.0 162.0L123.0 162.0L123.0 173.1ZM136.8 173.1L131.4 173.1L131.4 153.5L136.8 153.5L136.8 173.1ZM134.1 150.9L134.1 150.9Q132.9 150.9 132.0 150.1Q131.2 149.3 131.2 148.2L131.2 148.2Q131.2 147.0 132.0 146.2Q132.9 145.4 134.1 145.4L134.1 145.4Q135.3 145.4 136.2 146.2Q137.1 147.0 137.1 148.2L137.1 148.2Q137.1 149.3 136.2 150.1Q135.3 150.9 134.1 150.9ZM149.2 173.5L149.2 173.5Q146.2 173.5 144.0 172.2Q141.8 171.0 140.7 168.7Q139.5 166.5 139.5 163.4L139.5 163.4Q139.5 160.3 140.7 158.0Q141.8 155.8 144.0 154.5Q146.1 153.2 149.0 153.2L149.0 153.2Q151.0 153.2 152.6 153.8Q154.3 154.4 155.6 155.7Q156.8 156.9 157.5 158.8Q158.2 160.7 158.2 163.2L158.2 163.2L158.2 164.7L141.7 164.7L141.7 161.3L153.1 161.3Q153.1 160.1 152.6 159.2Q152.1 158.3 151.2 157.8Q150.3 157.3 149.1 157.3L149.1 157.3Q147.9 157.3 146.9 157.8Q146.0 158.4 145.4 159.4Q144.9 160.3 144.9 161.5L144.9 161.5L144.9 164.7Q144.9 166.1 145.4 167.2Q146.0 168.3 146.9 168.8Q147.9 169.4 149.3 169.4L149.3 169.4Q150.2 169.4 151.0 169.2Q151.7 168.9 152.3 168.4Q152.8 167.9 153.1 167.1L153.1 167.1L158.1 167.5Q157.7 169.3 156.6 170.6Q155.4 172.0 153.5 172.7Q151.7 173.5 149.2 173.5ZM166.3 161.7L166.3 161.7L166.3 173.1L160.9 173.1L160.9 153.5L166.1 153.5L166.1 156.9L166.3 156.9Q167.0 155.2 168.5 154.2Q170.0 153.2 172.2 153.2L172.2 153.2Q174.3 153.2 175.8 154.1Q177.3 155.0 178.2 156.6Q179.0 158.3 179.0 160.6L179.0 160.6L179.0 173.1L173.5 173.1L173.5 161.6Q173.6 159.8 172.6 158.7Q171.7 157.7 170.1 157.7L170.1 157.7Q169.0 157.7 168.1 158.2Q167.3 158.7 166.8 159.6Q166.4 160.5 166.3 161.7ZM191.2 173.5L191.2 173.5Q188.2 173.5 186.1 172.2Q183.9 170.9 182.7 168.6Q181.6 166.3 181.6 163.3L181.6 163.3Q181.6 160.3 182.8 158.1Q183.9 155.8 186.1 154.5Q188.2 153.2 191.2 153.2L191.2 153.2Q193.8 153.2 195.7 154.1Q197.7 155.1 198.8 156.8Q199.9 158.4 200.0 160.7L200.0 160.7L194.9 160.7Q194.7 159.2 193.7 158.3Q192.8 157.4 191.3 157.4L191.3 157.4Q190.0 157.4 189.1 158.1Q188.2 158.8 187.6 160.1Q187.1 161.4 187.1 163.3L187.1 163.3Q187.1 165.2 187.6 166.5Q188.2 167.8 189.1 168.5Q190.0 169.2 191.3 169.2L191.3 169.2Q192.2 169.2 193.0 168.8Q193.7 168.4 194.2 167.7Q194.7 166.9 194.9 165.9L194.9 165.9L200.0 165.9Q199.9 168.1 198.8 169.9Q197.7 171.6 195.8 172.5Q193.9 173.5 191.2 173.5ZM211.6 173.5L211.6 173.5Q208.5 173.5 206.4 172.2Q204.2 171.0 203.0 168.7Q201.8 166.5 201.8 163.4L201.8 163.4Q201.8 160.3 203.0 158.0Q204.2 155.8 206.3 154.5Q208.5 153.2 211.4 153.2L211.4 153.2Q213.3 153.2 215.0 153.8Q216.7 154.4 217.9 155.7Q219.2 156.9 219.9 158.8Q220.6 160.7 220.6 163.2L220.6 163.2L220.6 164.7L204.0 164.7L204.0 161.3L215.5 161.3Q215.5 160.1 214.9 159.2Q214.4 158.3 213.5 157.8Q212.6 157.3 211.4 157.3L211.4 157.3Q210.2 157.3 209.3 157.8Q208.3 158.4 207.8 159.4Q207.2 160.3 207.2 161.5L207.2 161.5L207.2 164.7Q207.2 166.1 207.8 167.2Q208.3 168.3 209.3 168.8Q210.3 169.4 211.7 169.4L211.7 169.4Q212.6 169.4 213.3 169.2Q214.1 168.9 214.6 168.4Q215.1 167.9 215.4 167.1L215.4 167.1L220.5 167.5Q220.1 169.3 218.9 170.6Q217.7 172.0 215.9 172.7Q214.0 173.5 211.6 173.5Z M229.3 153.5L241.1 153.5L241.1 157.5L229.3 157.5L229.3 153.5ZM232.0 167.8L232.0 148.8L237.4 148.8L237.4 167.1Q237.4 167.8 237.7 168.2Q237.9 168.6 238.3 168.8Q238.7 169.0 239.3 169.0L239.3 169.0Q239.7 169.0 240.0 168.9Q240.4 168.8 240.6 168.8L240.6 168.8L241.5 172.8Q241.1 173.0 240.3 173.1Q239.6 173.3 238.5 173.4L238.5 173.4Q236.6 173.4 235.1 172.8Q233.6 172.2 232.8 171.0Q232.0 169.7 232.0 167.8L232.0 167.8ZM249.6 161.7L249.6 161.7L249.6 173.1L244.2 173.1L244.2 146.9L249.5 146.9L249.5 156.9L249.7 156.9Q250.4 155.2 251.9 154.2Q253.3 153.2 255.6 153.2L255.6 153.2Q257.6 153.2 259.1 154.1Q260.7 155.0 261.5 156.6Q262.4 158.3 262.4 160.6L262.4 160.6L262.4 173.1L256.9 173.1L256.9 161.6Q256.9 159.7 256.0 158.7Q255.1 157.7 253.4 157.7L253.4 157.7Q252.3 157.7 251.4 158.2Q250.6 158.7 250.1 159.6Q249.6 160.5 249.6 161.7ZM274.7 173.5L274.7 173.5Q271.7 173.5 269.5 172.2Q267.3 171.0 266.1 168.7Q265.0 166.5 265.0 163.4L265.0 163.4Q265.0 160.3 266.1 158.0Q267.3 155.8 269.5 154.5Q271.6 153.2 274.5 153.2L274.5 153.2Q276.4 153.2 278.1 153.8Q279.8 154.4 281.1 155.7Q282.3 156.9 283.0 158.8Q283.7 160.7 283.7 163.2L283.7 163.2L283.7 164.7L267.1 164.7L267.1 161.3L278.6 161.3Q278.6 160.1 278.1 159.2Q277.6 158.3 276.7 157.8Q275.8 157.3 274.6 157.3L274.6 157.3Q273.3 157.3 272.4 157.8Q271.4 158.4 270.9 159.4Q270.4 160.3 270.3 161.5L270.3 161.5L270.3 164.7Q270.3 166.1 270.9 167.2Q271.4 168.3 272.4 168.8Q273.4 169.4 274.8 169.4L274.8 169.4Q275.7 169.4 276.5 169.2Q277.2 168.9 277.7 168.4Q278.3 167.9 278.6 167.1L278.6 167.1L283.6 167.5Q283.2 169.3 282.0 170.6Q280.9 172.0 279.0 172.7Q277.1 173.5 274.7 173.5Z "/><mask id="satori_om-id-0-0-0-1"><rect x="32" y="180" width="358" height="40" fill="#fff"/></mask><path fill="#4f46e5" d="M45.6 213.1L40.2 213.1L32.7 186.9L38.7 186.9L43.1 205.1L43.3 205.1L48.1 186.9L53.2 186.9L58.0 205.1L58.2 205.1L62.6 186.9L68.6 186.9L61.1 213.1L55.7 213.1L50.7 196.0L50.5 196.0L45.6 213.1ZM77.3 213.5L77.3 213.5Q74.3 213.5 72.2 212.2Q70.0 210.9 68.8 208.6Q67.6 206.4 67.6 203.3L67.6 203.3Q67.6 200.3 68.8 198.0Q70.0 195.7 72.2 194.5Q74.3 193.2 77.3 193.2L77.3 193.2Q80.3 193.2 82.5 194.5Q84.6 195.7 85.8 198.0Q87.0 200.3 87.0 203.3L87.0 203.3Q87.0 206.4 85.8 208.6Q84.6 210.9 82.5 212.2Q80.3 213.5 77.3 213.5ZM77.3 209.3L77.3 209.3Q78.7 209.3 79.6 208.5Q80.5 207.7 81.0 206.4Q81.4 205.0 81.4 203.3L81.4 203.3Q81.4 201.6 81.0 200.3Q80.5 198.9 79.6 198.1Q78.7 197.4 77.3 197.4L77.3 197.4Q76.0 197.4 75.0 198.1Q74.1 198.9 73.7 200.3Q73.2 201.6 73.2 203.3L73.2 203.3Q73.2 205.0 73.7 206.4Q74.1 207.7 75.0 208.5Q76.0 209.3 77.3 209.3ZM95.1 201.7L95.1 201.7L95.1 213.1L89.6 213.1L89.6 193.5L94.8 193.5L94.8 196.9L95.1 196.9Q95.7 195.2 97.2 194.2Q98.8 193.2 101.0 193.2L101.0 193.2Q103.0 193.2 104.5 194.1Q106.0 195.0 106.9 196.6Q107.7 198.3 107.7 200.6L107.7 200.6L107.7 213.1L102.3 213.1L102.3 201.6Q102.3 199.8 101.4 198.7Q100.4 197.7 98.8 197.7L98.8 197.7Q97.7 197.7 96.9 198.2Q96.0 198.7 95.6 199.6Q95.1 200.5 95.1 201.7ZM118.4 213.4L118.4 213.4Q116.1 213.4 114.3 212.3Q112.5 211.1 111.4 208.8Q110.4 206.6 110.4 203.3L110.4 203.3Q110.4 199.9 111.5 197.7Q112.6 195.4 114.4 194.3Q116.2 193.2 118.3 193.2L118.3 193.2Q120.0 193.2 121.1 193.8Q122.2 194.3 122.9 195.1Q123.6 196.0 123.9 196.8L123.9 196.8L124.1 196.8L124.1 186.9L129.5 186.9L129.5 213.1L124.2 213.1L124.2 209.9L123.9 209.9Q123.5 210.8 122.8 211.6Q122.2 212.4 121.0 212.9Q119.9 213.4 118.4 213.4ZM120.1 209.1L120.1 209.1Q121.4 209.1 122.3 208.4Q123.2 207.6 123.7 206.3Q124.2 205.0 124.2 203.3L124.2 203.3Q124.2 201.5 123.7 200.2Q123.2 198.9 122.3 198.2Q121.4 197.5 120.1 197.5L120.1 197.5Q118.7 197.5 117.8 198.3Q116.9 199.0 116.4 200.3Q116.0 201.6 116.0 203.3L116.0 203.3Q116.0 205.0 116.4 206.3Q116.9 207.6 117.8 208.3Q118.7 209.1 120.1 209.1ZM142.0 213.5L142.0 213.5Q139.0 213.5 136.8 212.2Q134.6 211.0 133.5 208.7Q132.3 206.5 132.3 203.4L132.3 203.4Q132.3 200.3 133.5 198.0Q134.6 195.8 136.8 194.5Q138.9 193.2 141.8 193.2L141.8 193.2Q143.8 193.2 145.4 193.8Q147.1 194.4 148.4 195.7Q149.6 196.9 150.3 198.8Q151.1 200.7 151.1 203.2L151.1 203.2L151.1 204.7L134.5 204.7L134.5 201.3L145.9 201.3Q145.9 200.1 145.4 199.2Q144.9 198.3 144.0 197.8Q143.1 197.3 141.9 197.3L141.9 197.3Q140.7 197.3 139.7 197.8Q138.8 198.4 138.2 199.4Q137.7 200.3 137.7 201.5L137.7 201.5L137.7 204.7Q137.7 206.1 138.2 207.2Q138.8 208.3 139.8 208.8Q140.8 209.4 142.1 209.4L142.1 209.4Q143.0 209.4 143.8 209.2Q144.5 208.9 145.1 208.4Q145.6 207.9 145.9 207.1L145.9 207.1L150.9 207.5Q150.6 209.3 149.4 210.6Q148.2 212.0 146.3 212.7Q144.5 213.5 142.0 213.5ZM159.2 213.1L153.7 213.1L153.7 193.5L159.0 193.5L159.0 196.9L159.2 196.9Q159.7 195.1 161.0 194.1Q162.3 193.2 163.9 193.2L163.9 193.2Q164.3 193.2 164.8 193.2Q165.3 193.3 165.6 193.4L165.6 193.4L165.6 198.2Q165.2 198.1 164.6 198.0Q163.9 197.9 163.3 197.9L163.3 197.9Q162.1 197.9 161.2 198.4Q160.2 198.9 159.7 199.9Q159.2 200.8 159.2 202.0L159.2 202.0L159.2 213.1ZM183.9 199.1L183.9 199.1L178.9 199.4Q178.7 198.7 178.3 198.2Q177.9 197.7 177.2 197.4Q176.5 197.1 175.6 197.1L175.6 197.1Q174.3 197.1 173.5 197.6Q172.6 198.1 172.6 199.0L172.6 199.0Q172.6 199.7 173.1 200.2Q173.7 200.7 175.1 201.0L175.1 201.0L178.6 201.7Q181.5 202.3 182.9 203.6Q184.3 204.9 184.3 207.0L184.3 207.0Q184.3 208.9 183.2 210.4Q182.0 211.9 180.1 212.7Q178.1 213.5 175.6 213.5L175.6 213.5Q171.7 213.5 169.4 211.8Q167.0 210.2 166.6 207.4L166.6 207.4L172.0 207.1Q172.2 208.3 173.2 208.9Q174.1 209.5 175.6 209.5L175.6 209.5Q177.0 209.5 177.9 209.0Q178.8 208.4 178.8 207.6L178.8 207.6Q178.8 206.8 178.1 206.3Q177.5 205.9 176.3 205.6L176.3 205.6L172.8 204.9Q170.0 204.3 168.6 202.9Q167.2 201.5 167.2 199.3L167.2 199.3Q167.2 197.4 168.2 196.0Q169.2 194.7 171.1 193.9Q173.0 193.2 175.5 193.2L175.5 193.2Q179.2 193.2 181.4 194.8Q183.5 196.3 183.9 199.1Z M205.3 213.5L205.3 213.5Q202.3 213.5 200.1 212.2Q198.0 210.9 196.8 208.6Q195.6 206.4 195.6 203.3L195.6 203.3Q195.6 200.3 196.8 198.0Q198.0 195.7 200.1 194.5Q202.3 193.2 205.3 193.2L205.3 193.2Q208.3 193.2 210.4 194.5Q212.6 195.7 213.8 198.0Q215.0 200.3 215.0 203.3L215.0 203.3Q215.0 206.4 213.8 208.6Q212.6 210.9 210.4 212.2Q208.3 213.5 205.3 213.5ZM205.3 209.3L205.3 209.3Q206.7 209.3 207.6 208.5Q208.5 207.7 208.9 206.4Q209.4 205.0 209.4 203.3L209.4 203.3Q209.4 201.6 208.9 200.3Q208.5 198.9 207.6 198.1Q206.7 197.4 205.3 197.4L205.3 197.4Q203.9 197.4 203.0 198.1Q202.1 198.9 201.6 200.3Q201.2 201.6 201.2 203.3L201.2 203.3Q201.2 205.0 201.6 206.4Q202.1 207.7 203.0 208.5Q203.9 209.3 205.3 209.3ZM216.0 193.5L228.2 193.5L228.2 197.5L216.0 197.5L216.0 193.5ZM224.3 213.1L218.8 213.1L218.8 192.0Q218.8 189.9 219.7 188.5Q220.5 187.1 222.0 186.4Q223.4 185.7 225.3 185.7L225.3 185.7Q226.5 185.7 227.6 185.9Q228.6 186.1 229.1 186.2L229.1 186.2L228.1 190.3Q227.8 190.2 227.4 190.1Q226.9 190.0 226.4 190.0L226.4 190.0Q225.2 190.0 224.7 190.6Q224.3 191.1 224.3 192.1L224.3 192.1L224.3 213.1Z M257.6 194.4L252.3 194.4Q252.2 192.9 251.0 192.0Q249.9 191.2 247.9 191.2L247.9 191.2Q246.5 191.2 245.6 191.6Q244.6 191.9 244.2 192.6Q243.7 193.3 243.7 194.1L243.7 194.1Q243.6 194.8 244.0 195.3Q244.3 195.9 244.9 196.2Q245.4 196.6 246.2 196.9Q246.9 197.2 247.8 197.4L247.8 197.4L250.2 197.9Q251.9 198.3 253.3 198.9Q254.7 199.6 255.8 200.5Q256.8 201.4 257.4 202.7Q258.0 204.0 258.0 205.6L258.0 205.6Q258.0 208.0 256.8 209.8Q255.6 211.5 253.3 212.5Q251.0 213.5 247.8 213.5L247.8 213.5Q244.7 213.5 242.3 212.5Q240.0 211.5 238.7 209.6Q237.4 207.7 237.3 204.9L237.3 204.9L242.7 204.9Q242.7 206.2 243.4 207.1Q244.1 207.9 245.2 208.4Q246.3 208.8 247.8 208.8L247.8 208.8Q249.2 208.8 250.2 208.4Q251.3 208.0 251.8 207.3Q252.4 206.5 252.4 205.6L252.4 205.6Q252.4 204.7 251.9 204.1Q251.4 203.5 250.4 203.1Q249.4 202.7 248.0 202.3L248.0 202.3L245.1 201.6Q241.8 200.8 239.9 199.1Q238.0 197.4 238.0 194.5L238.0 194.5Q238.0 192.1 239.3 190.3Q240.5 188.5 242.8 187.5Q245.0 186.6 247.9 186.6L247.9 186.6Q250.8 186.6 253.0 187.5Q255.2 188.5 256.4 190.3Q257.6 192.1 257.6 194.4L257.6 194.4ZM266.2 213.1L260.7 213.1L260.7 193.5L266.0 193.5L266.0 196.9L266.2 196.9Q266.7 195.1 268.0 194.1Q269.3 193.2 270.9 193.2L270.9 193.2Q271.3 193.2 271.8 193.2Q272.3 193.3 272.6 193.4L272.6 193.4L272.6 198.2Q272.2 198.1 271.6 198.0Q270.9 197.9 270.3 197.9L270.3 197.9Q269.1 197.9 268.2 198.4Q267.2 198.9 266.7 199.9Q266.2 200.8 266.2 202.0L266.2 202.0L266.2 213.1ZM280.0 213.1L274.5 213.1L274.5 193.5L280.0 193.5L280.0 213.1ZM277.3 190.9L277.3 190.9Q276.0 190.9 275.2 190.1Q274.3 189.3 274.3 188.2L274.3 188.2Q274.3 187.0 275.2 186.2Q276.0 185.4 277.3 185.4L277.3 185.4Q278.5 185.4 279.3 186.2Q280.2 187.0 280.2 188.2L280.2 188.2Q280.2 189.3 279.3 190.1Q278.5 190.9 277.3 190.9Z M307.7 213.1L291.0 213.1L291.0 186.9L296.5 186.9L296.5 208.5L307.7 208.5L307.7 213.1ZM316.0 213.5L316.0 213.5Q314.1 213.5 312.6 212.8Q311.2 212.1 310.3 210.8Q309.5 209.5 309.5 207.6L309.5 207.6Q309.5 206.0 310.1 204.9Q310.7 203.7 311.7 203.1Q312.7 202.4 314.1 202.0Q315.4 201.7 316.9 201.6L316.9 201.6Q318.6 201.4 319.6 201.2Q320.7 201.1 321.1 200.7Q321.6 200.4 321.6 199.8L321.6 199.8L321.6 199.7Q321.6 198.5 320.8 197.8Q320.1 197.2 318.7 197.2L318.7 197.2Q317.2 197.2 316.4 197.8Q315.5 198.5 315.2 199.4L315.2 199.4L310.2 199.0Q310.5 197.2 311.7 195.9Q312.8 194.6 314.6 193.9Q316.4 193.2 318.7 193.2L318.7 193.2Q320.4 193.2 321.9 193.6Q323.4 194.0 324.5 194.8Q325.7 195.6 326.4 196.8Q327.1 198.1 327.1 199.8L327.1 199.8L327.1 213.1L321.9 213.1L321.9 210.4L321.7 210.4Q321.3 211.3 320.5 212.0Q319.7 212.7 318.6 213.1Q317.5 213.5 316.0 213.5ZM317.6 209.7L317.6 209.7Q318.8 209.7 319.7 209.2Q320.6 208.7 321.1 207.9Q321.6 207.1 321.6 206.1L321.6 206.1L321.6 204.0Q321.4 204.2 320.9 204.3Q320.5 204.4 320.0 204.5Q319.4 204.6 318.9 204.7Q318.3 204.8 317.9 204.9L317.9 204.9Q316.9 205.0 316.2 205.3Q315.5 205.6 315.1 206.1Q314.7 206.7 314.7 207.4L314.7 207.4Q314.7 208.5 315.5 209.1Q316.3 209.7 317.6 209.7ZM335.8 201.7L335.8 201.7L335.8 213.1L330.4 213.1L330.4 193.5L335.6 193.5L335.6 196.9L335.8 196.9Q336.5 195.2 338.0 194.2Q339.5 193.2 341.7 193.2L341.7 193.2Q343.8 193.2 345.3 194.1Q346.8 195.0 347.6 196.6Q348.5 198.3 348.5 200.6L348.5 200.6L348.5 213.1L343.0 213.1L343.0 201.6Q343.1 199.8 342.1 198.7Q341.2 197.7 339.5 197.7L339.5 197.7Q338.5 197.7 337.6 198.2Q336.8 198.7 336.3 199.6Q335.8 200.5 335.8 201.7ZM360.4 203.3L356.8 207.4L356.8 200.9L357.6 200.9L363.9 193.5L370.1 193.5L361.7 203.3L360.4 203.3ZM357.3 213.1L351.9 213.1L351.9 186.9L357.3 186.9L357.3 213.1ZM370.5 213.1L364.1 213.1L358.4 204.5L362.0 200.7L370.5 213.1ZM377.5 213.5L377.5 213.5Q375.6 213.5 374.2 212.8Q372.7 212.1 371.8 210.8Q371.0 209.5 371.0 207.6L371.0 207.6Q371.0 206.0 371.6 204.9Q372.2 203.7 373.2 203.1Q374.3 202.4 375.6 202.0Q376.9 201.7 378.4 201.6L378.4 201.6Q380.1 201.4 381.1 201.2Q382.2 201.1 382.6 200.7Q383.1 200.4 383.1 199.8L383.1 199.8L383.1 199.7Q383.1 198.5 382.4 197.8Q381.6 197.2 380.2 197.2L380.2 197.2Q378.7 197.2 377.9 197.8Q377.0 198.5 376.7 199.4L376.7 199.4L371.7 199.0Q372.1 197.2 373.2 195.9Q374.3 194.6 376.1 193.9Q377.9 193.2 380.2 193.2L380.2 193.2Q381.9 193.2 383.4 193.6Q384.9 194.0 386.0 194.8Q387.2 195.6 387.9 196.8Q388.6 198.1 388.6 199.8L388.6 199.8L388.6 213.1L383.4 213.1L383.4 210.4L383.2 210.4Q382.8 211.3 382.0 212.0Q381.2 212.7 380.1 213.1Q379.0 213.5 377.5 213.5ZM379.1 209.7L379.1 209.7Q380.3 209.7 381.2 209.2Q382.1 208.7 382.6 207.9Q383.2 207.1 383.2 206.1L383.2 206.1L383.2 204.0Q382.9 204.2 382.5 204.3Q382.0 204.4 381.5 204.5Q380.9 204.6 380.4 204.7Q379.8 204.8 379.4 204.9L379.4 204.9Q378.4 205.0 377.7 205.3Q377.0 205.6 376.6 206.1Q376.2 206.7 376.2 207.4L376.2 207.4Q376.2 208.5 377.0 209.1Q377.8 209.7 379.1 209.7Z "/><mask id="satori_om-id-0-0-0-2"><rect x="32" y="220" width="358" height="40" fill="#fff"/></mask><path fill="#111827" d="M45.6 253.1L40.2 253.1L32.7 226.9L38.7 226.9L43.1 245.1L43.3 245.1L48.1 226.9L53.2 226.9L58.0 245.1L58.2 245.1L62.6 226.9L68.6 226.9L61.1 253.1L55.7 253.1L50.7 236.0L50.5 236.0L45.6 253.1ZM76.0 253.1L70.6 253.1L70.6 233.5L76.0 233.5L76.0 253.1ZM73.3 230.9L73.3 230.9Q72.1 230.9 71.2 230.1Q70.4 229.3 70.4 228.2L70.4 228.2Q70.4 227.0 71.2 226.2Q72.1 225.4 73.3 225.4L73.3 225.4Q74.5 225.4 75.4 226.2Q76.2 227.0 76.2 228.2L76.2 228.2Q76.2 229.3 75.4 230.1Q74.5 230.9 73.3 230.9ZM78.1 233.5L89.9 233.5L89.9 237.5L78.1 237.5L78.1 233.5ZM80.8 247.8L80.8 228.8L86.2 228.8L86.2 247.1Q86.2 247.8 86.4 248.2Q86.7 248.6 87.1 248.8Q87.5 249.0 88.0 249.0L88.0 249.0Q88.4 249.0 88.8 248.9Q89.2 248.8 89.4 248.8L89.4 248.8L90.3 252.8Q89.9 253.0 89.1 253.1Q88.4 253.3 87.3 253.4L87.3 253.4Q85.3 253.4 83.9 252.8Q82.4 252.2 81.6 251.0Q80.7 249.7 80.8 247.8L80.8 247.8ZM98.4 241.7L98.4 241.7L98.4 253.1L93.0 253.1L93.0 226.9L98.2 226.9L98.2 236.9L98.5 236.9Q99.1 235.2 100.6 234.2Q102.1 233.2 104.3 233.2L104.3 233.2Q106.4 233.2 107.9 234.1Q109.4 235.0 110.3 236.6Q111.1 238.3 111.1 240.6L111.1 240.6L111.1 253.1L105.7 253.1L105.7 241.6Q105.7 239.7 104.8 238.7Q103.8 237.7 102.2 237.7L102.2 237.7Q101.1 237.7 100.2 238.2Q99.4 238.7 98.9 239.6Q98.4 240.5 98.4 241.7Z M127.2 253.1L121.7 253.1L121.7 226.9L132.0 226.9Q135.0 226.9 137.1 228.0Q139.2 229.0 140.3 230.9Q141.4 232.9 141.4 235.5L141.4 235.5Q141.4 238.1 140.3 239.9Q139.1 241.8 137.0 242.8Q134.9 243.8 131.9 243.8L131.9 243.8L124.9 243.8L124.9 239.4L131.0 239.4Q132.5 239.4 133.6 238.9Q134.6 238.5 135.2 237.6Q135.7 236.8 135.7 235.5L135.7 235.5Q135.7 234.2 135.2 233.3Q134.6 232.4 133.6 231.9Q132.5 231.4 130.9 231.4L130.9 231.4L127.2 231.4L127.2 253.1ZM129.8 241.2L135.8 241.2L142.3 253.1L136.2 253.1L129.8 241.2ZM149.9 253.5L149.9 253.5Q148.0 253.5 146.5 252.8Q145.1 252.1 144.2 250.8Q143.4 249.5 143.4 247.6L143.4 247.6Q143.4 246.0 144.0 244.9Q144.6 243.7 145.6 243.1Q146.6 242.4 148.0 242.0Q149.3 241.7 150.7 241.6L150.7 241.6Q152.5 241.4 153.5 241.2Q154.6 241.1 155.0 240.7Q155.5 240.4 155.5 239.8L155.5 239.8L155.5 239.7Q155.5 238.5 154.7 237.8Q154.0 237.2 152.6 237.2L152.6 237.2Q151.1 237.2 150.2 237.8Q149.4 238.5 149.1 239.4L149.1 239.4L144.1 239.0Q144.4 237.2 145.6 235.9Q146.7 234.6 148.5 233.9Q150.3 233.2 152.6 233.2L152.6 233.2Q154.2 233.2 155.8 233.6Q157.3 234.0 158.4 234.8Q159.6 235.6 160.3 236.8Q160.9 238.1 160.9 239.8L160.9 239.8L160.9 253.1L155.8 253.1L155.8 250.4L155.6 250.4Q155.2 251.3 154.4 252.0Q153.6 252.7 152.5 253.1Q151.3 253.5 149.9 253.5ZM151.4 249.7L151.4 249.7Q152.7 249.7 153.6 249.2Q154.5 248.7 155.0 247.9Q155.5 247.1 155.5 246.1L155.5 246.1L155.5 244.0Q155.3 244.2 154.8 244.3Q154.4 244.4 153.9 244.5Q153.3 244.6 152.8 244.7Q152.2 244.8 151.8 244.9L151.8 244.9Q150.8 245.0 150.1 245.3Q149.4 245.6 149.0 246.1Q148.6 246.7 148.6 247.4L148.6 247.4Q148.6 248.5 149.4 249.1Q150.2 249.7 151.4 249.7ZM169.7 241.7L169.7 241.7L169.7 253.1L164.3 253.1L164.3 233.5L169.5 233.5L169.5 236.9L169.7 236.9Q170.4 235.2 171.9 234.2Q173.4 233.2 175.6 233.2L175.6 233.2Q177.7 233.2 179.2 234.1Q180.7 235.0 181.5 236.6Q182.4 238.3 182.4 240.6L182.4 240.6L182.4 253.1L176.9 253.1L176.9 241.6Q176.9 239.8 176.0 238.7Q175.1 237.7 173.4 237.7L173.4 237.7Q172.3 237.7 171.5 238.2Q170.7 238.7 170.2 239.6Q169.7 240.5 169.7 241.7ZM195.4 253.1L189.6 253.1L184.3 233.5L189.8 233.5L192.8 246.6L193.0 246.6L196.2 233.5L201.6 233.5L204.8 246.6L205.0 246.6L208.0 233.5L213.5 233.5L208.1 253.1L202.4 253.1L199.0 240.7L198.8 240.7L195.4 253.1ZM220.9 253.1L215.5 253.1L215.5 233.5L220.9 233.5L220.9 253.1ZM218.2 230.9L218.2 230.9Q217.0 230.9 216.1 230.1Q215.3 229.3 215.3 228.2L215.3 228.2Q215.3 227.0 216.1 226.2Q217.0 225.4 218.2 225.4L218.2 225.4Q219.4 225.4 220.3 226.2Q221.1 227.0 221.1 228.2L221.1 228.2Q221.1 229.3 220.3 230.1Q219.4 230.9 218.2 230.9ZM229.8 241.7L229.8 241.7L229.8 253.1L224.4 253.1L224.4 233.5L229.6 233.5L229.6 236.9L229.8 236.9Q230.4 235.2 232.0 234.2Q233.5 233.2 235.7 233.2L235.7 233.2Q237.7 233.2 239.3 234.1Q240.8 235.0 241.6 236.6Q242.5 238.3 242.5 240.6L242.5 240.6L242.5 253.1L237.0 253.1L237.0 241.6Q237.0 239.8 236.1 238.7Q235.2 237.7 233.5 237.7L233.5 237.7Q232.4 237.7 231.6 238.2Q230.8 238.7 230.3 239.6Q229.8 240.5 229.8 241.7Z M251.9 233.5L263.7 233.5L263.7 237.5L251.9 237.5L251.9 233.5ZM254.6 247.8L254.6 228.8L260.0 228.8L260.0 247.1Q260.0 247.8 260.3 248.2Q260.5 248.6 260.9 248.8Q261.3 249.0 261.9 249.0L261.9 249.0Q262.3 249.0 262.7 248.9Q263.0 248.8 263.2 248.8L263.2 248.8L264.1 252.8Q263.7 253.0 262.9 253.1Q262.2 253.3 261.1 253.4L261.1 253.4Q259.2 253.4 257.7 252.8Q256.2 252.2 255.4 251.0Q254.6 249.7 254.6 247.8L254.6 247.8ZM275.0 253.5L275.0 253.5Q272.1 253.5 269.9 252.2Q267.7 250.9 266.6 248.6Q265.4 246.4 265.4 243.3L265.4 243.3Q265.4 240.3 266.6 238.0Q267.7 235.7 269.9 234.5Q272.1 233.2 275.0 233.2L275.0 233.2Q278.0 233.2 280.2 234.5Q282.4 235.7 283.5 238.0Q284.7 240.3 284.7 243.3L284.7 243.3Q284.7 246.4 283.5 248.6Q282.4 250.9 280.2 252.2Q278.0 253.5 275.0 253.5ZM275.1 249.3L275.1 249.3Q276.4 249.3 277.3 248.5Q278.2 247.7 278.7 246.4Q279.2 245.0 279.2 243.3L279.2 243.3Q279.2 241.6 278.7 240.3Q278.2 238.9 277.3 238.1Q276.4 237.4 275.1 237.4L275.1 237.4Q273.7 237.4 272.8 238.1Q271.9 238.9 271.4 240.3Q270.9 241.6 270.9 243.3L270.9 243.3Q270.9 245.0 271.4 246.4Q271.9 247.7 272.8 248.5Q273.7 249.3 275.1 249.3ZM300.0 244.7L300.0 244.7L300.0 233.5L305.4 233.5L305.4 253.1L300.2 253.1L300.2 249.5L300.0 249.5Q299.3 251.3 297.8 252.3Q296.2 253.3 294.0 253.3L294.0 253.3Q292.0 253.3 290.6 252.5Q289.1 251.6 288.2 249.9Q287.4 248.3 287.4 246.0L287.4 246.0L287.4 233.5L292.8 233.5L292.8 245.0Q292.8 246.7 293.7 247.7Q294.7 248.7 296.2 248.7L296.2 248.7Q297.2 248.7 298.1 248.3Q298.9 247.8 299.4 246.9Q300.0 246.0 300.0 244.7ZM314.3 253.1L308.9 253.1L308.9 233.5L314.1 233.5L314.1 236.9L314.3 236.9Q314.9 235.1 316.1 234.1Q317.4 233.2 319.1 233.2L319.1 233.2Q319.5 233.2 319.9 233.2Q320.4 233.3 320.8 233.4L320.8 233.4L320.8 238.2Q320.4 238.1 319.7 238.0Q319.0 237.9 318.5 237.9L318.5 237.9Q317.3 237.9 316.3 238.4Q315.4 238.9 314.8 239.9Q314.3 240.8 314.3 242.0L314.3 242.0L314.3 253.1ZM339.0 239.1L339.0 239.1L334.0 239.4Q333.9 238.7 333.5 238.2Q333.0 237.7 332.4 237.4Q331.7 237.1 330.7 237.1L330.7 237.1Q329.5 237.1 328.6 237.6Q327.7 238.1 327.7 239.0L327.7 239.0Q327.7 239.7 328.3 240.2Q328.9 240.7 330.2 241.0L330.2 241.0L333.8 241.7Q336.6 242.3 338.0 243.6Q339.5 244.9 339.5 247.0L339.5 247.0Q339.5 248.9 338.3 250.4Q337.2 251.9 335.2 252.7Q333.3 253.5 330.7 253.5L330.7 253.5Q326.8 253.5 324.5 251.8Q322.2 250.2 321.8 247.4L321.8 247.4L327.2 247.1Q327.4 248.3 328.3 248.9Q329.3 249.5 330.7 249.5L330.7 249.5Q332.2 249.5 333.0 249.0Q333.9 248.4 333.9 247.6L333.9 247.6Q333.9 246.8 333.3 246.3Q332.7 245.9 331.4 245.6L331.4 245.6L328.0 244.9Q325.1 244.3 323.7 242.9Q322.3 241.5 322.3 239.3L322.3 239.3Q322.3 237.4 323.4 236.0Q324.4 234.7 326.3 233.9Q328.1 233.2 330.6 233.2L330.6 233.2Q334.4 233.2 336.5 234.8Q338.6 236.3 339.0 239.1Z "/><mask id="satori_om-id-0-0-1"><rect x="591" y="175" width="177" height="50" fill="#fff"/></mask><mask id="satori_ms-id-0-0-1-0-1" maskUnits="userSpaceOnUse"><rect x="0" y="0" width="800" height="400" fill="#fff"/><path x="591" y="175" width="177" height="50" fill="#000"  stroke-width="-2" d="M597,175 h165 a6,6 0 0 1 6,6 v38 a6,6 0 0 1 -6,6 h-165 a6,6 0 0 1 -6,-6 v-38 a6,6 0 0 1 6,-6"/></mask><mask id="satori_ms-id-0-0-1-0-1-neg" maskUnits="userSpaceOnUse"><path x="591" y="176" width="177" height="50" fill="#fff" stroke="#000" stroke-width="2" d="M597,176 h165 a6,6 0 0 1 6,6 v38 a6,6 0 0 1 -6,6 h-165 a6,6 0 0 1 -6,-6 v-38 a6,6 0 0 1 6,-6"/></mask><defs><filter id="satori_s-id-0-0-1-0-1" x="0%" y="0%" width="100%" height="100%"><feGaussianBlur stdDeviation="1" result="b"/><feFlood flood-color="rgba(0, 0, 0, 0.1)" in="SourceGraphic" result="f"/><feComposite in="f" in2="b" operator="in"/></filter></defs><g mask="url(#satori_ms-id-0-0-1-0-1)" filter="url(#satori_s-id-0-0-1-0-1)" opacity="1"><g mask="url(#satori_ms-id-0-0-1-0-1-neg)"><path x="591" y="176" width="177" height="50" fill="#fff" stroke="#fff" stroke-width="-2" d="M597,176 h165 a6,6 0 0 1 6,6 v38 a6,6 0 0 1 -6,6 h-165 a6,6 0 0 1 -6,-6 v-38 a6,6 0 0 1 6,-6"/></g></g><mask id="satori_ms-id-0-0-1-0-0" maskUnits="userSpaceOnUse"><rect x="0" y="0" width="800" height="400" fill="#fff"/><path x="591" y="175" width="177" height="50" fill="#000"  stroke-width="0" d="M597,175 h165 a6,6 0 0 1 6,6 v38 a6,6 0 0 1 -6,6 h-165 a6,6 0 0 1 -6,-6 v-38 a6,6 0 0 1 6,-6"/></mask><defs><filter id="satori_s-id-0-0-1-0-0" x="-1.2711864406779663%" y="-4.5%" width="102.54237288135593%" height="109.00000000000001%"><feGaussianBlur stdDeviation="1.5" result="b"/><feFlood flood-color="rgba(0, 0, 0, 0.1)" in="SourceGraphic" result="f"/><feComposite in="f" in2="b" operator="in"/></filter></defs><g mask="url(#satori_ms-id-0-0-1-0-0)" filter="url(#satori_s-id-0-0-1-0-0)" opacity="1"><path x="591" y="176" width="177" height="50" fill="#fff" stroke="#fff" stroke-width="0" d="M597,176 h165 a6,6 0 0 1 6,6 v38 a6,6 0 0 1 -6,6 h-165 a6,6 0 0 1 -6,-6 v-38 a6,6 0 0 1 6,-6"/></g><mask id="satori_om-id-0-0-1-0"><rect x="591" y="175" width="177" height="50" fill="#fff"/></mask><defs><clipPath id="satori_bc-id-0-0-1-0-0"><path x="591" y="175" width="177" height="50" d="M597,175 h165 a6,6 0 0 1 6,6 v38 a6,6 0 0 1 -6,6 h-165 a6,6 0 0 1 -6,-6 v-38 a6,6 0 0 1 6,-6"/></clipPath></defs><mask id="satori_om-id-0-0-1-0-0"><rect x="592" y="176" width="175" height="48" fill="#fff"/><path width="177" height="50" fill="none" stroke="#000" stroke-width="2" d="M592.757,176.757 A6,6 0 0 1 597,175 h165 a6,6 0 0 1 6,6 v38 a6,6 0 0 1 -6,6 h-165 a6,6 0 0 1 -6,-6 v-38 A6,6 0 0 1 592.757,176.757"/></mask><path x="591" y="175" width="177" height="50" fill="#4f46e5" d="M597,175 h165 a6,6 0 0 1 6,6 v38 a6,6 0 0 1 -6,6 h-165 a6,6 0 0 1 -6,-6 v-38 a6,6 0 0 1 6,-6"/><path width="177" height="50" clip-path="url(#satori_bc-id-0-0-1-0-0)" fill="none" stroke="transparent" stroke-width="2" d="M592.757,176.757 A6,6 0 0 1 597,175 h165 a6,6 0 0 1 6,6 v38 a6,6 0 0 1 -6,6 h-165 a6,6 0 0 1 -6,-6 v-38 A6,6 0 0 1 592.757,176.757"/><path fill="#fff" d="M620.5 205.8L613.4 205.8L613.4 194.2L620.4 194.2L620.4 195.4L614.8 195.4L614.8 199.4L620.1 199.4L620.1 200.6L614.8 200.6L614.8 204.6L620.5 204.6L620.5 205.8ZM622.3 197.1L623.8 197.1L625.9 200.7L628.0 197.1L629.5 197.1L626.7 201.5L629.5 205.8L628.0 205.8L625.9 202.4L623.8 205.8L622.3 205.8L625.0 201.5L622.3 197.1ZM632.8 209.1L631.4 209.1L631.4 197.1L632.7 197.1L632.7 198.5L632.9 198.5Q633.0 198.3 633.3 197.9Q633.6 197.5 634.1 197.3Q634.6 197.0 635.4 197.0L635.4 197.0Q636.5 197.0 637.4 197.5Q638.2 198.1 638.7 199.1Q639.1 200.1 639.1 201.5L639.1 201.5Q639.1 202.9 638.7 203.9Q638.2 204.9 637.4 205.4Q636.5 206 635.4 206L635.4 206Q634.6 206 634.1 205.7Q633.6 205.4 633.3 205.1Q633.0 204.7 632.9 204.5L632.9 204.5L632.8 204.5L632.8 209.1ZM632.8 201.5L632.8 201.5Q632.8 202.4 633.0 203.2Q633.3 203.9 633.9 204.4Q634.4 204.8 635.3 204.8L635.3 204.8Q636.1 204.8 636.7 204.3Q637.2 203.9 637.5 203.1Q637.8 202.4 637.8 201.5L637.8 201.5Q637.8 200.5 637.5 199.8Q637.2 199.1 636.7 198.6Q636.1 198.2 635.3 198.2L635.3 198.2Q634.4 198.2 633.9 198.6Q633.3 199.0 633.0 199.7Q632.8 200.5 632.8 201.5ZM641.2 194.2L642.5 194.2L642.5 205.8L641.2 205.8L641.2 194.2ZM648.5 206L648.5 206Q647.3 206 646.5 205.4Q645.6 204.9 645.1 203.9Q644.6 202.9 644.6 201.5L644.6 201.5Q644.6 200.1 645.1 199.1Q645.6 198.1 646.5 197.5Q647.3 197.0 648.5 197.0L648.5 197.0Q649.7 197.0 650.6 197.5Q651.5 198.1 652.0 199.1Q652.5 200.1 652.5 201.5L652.5 201.5Q652.5 202.9 652.0 203.9Q651.5 204.9 650.6 205.4Q649.7 206 648.5 206ZM648.5 204.8L648.5 204.8Q649.4 204.8 650 204.3Q650.6 203.9 650.9 203.1Q651.1 202.4 651.1 201.5L651.1 201.5Q651.1 200.6 650.9 199.9Q650.6 199.1 650 198.6Q649.4 198.2 648.5 198.2L648.5 198.2Q647.6 198.2 647.0 198.6Q646.5 199.1 646.2 199.9Q645.9 200.6 645.9 201.5L645.9 201.5Q645.9 202.4 646.2 203.1Q646.5 203.9 647.0 204.3Q647.6 204.8 648.5 204.8ZM655.9 205.8L654.5 205.8L654.5 197.1L655.8 197.1L655.8 198.4L655.9 198.4Q656.1 197.8 656.8 197.4Q657.4 197.0 658.2 197.0L658.2 197.0Q658.3 197.0 658.6 197.0Q658.8 197.0 658.9 197.0L658.9 197.0L658.9 198.3Q658.8 198.3 658.6 198.3Q658.3 198.3 658.1 198.3L658.1 198.3Q657.4 198.3 656.9 198.5Q656.4 198.8 656.2 199.2Q655.9 199.7 655.9 200.3L655.9 200.3L655.9 205.8ZM663.9 206L663.9 206Q662.6 206 661.7 205.4Q660.8 204.9 660.3 203.9Q659.8 202.9 659.8 201.5L659.8 201.5Q659.8 200.2 660.3 199.2Q660.8 198.1 661.7 197.6Q662.5 197.0 663.7 197.0L663.7 197.0Q664.4 197.0 665.1 197.2Q665.7 197.4 666.3 197.9Q666.8 198.4 667.2 199.3Q667.5 200.1 667.5 201.3L667.5 201.3L667.5 201.9L660.8 201.9L660.8 200.8L666.1 200.8Q666.1 200.0 665.8 199.4Q665.5 198.9 665.0 198.5Q664.5 198.2 663.7 198.2L663.7 198.2Q662.9 198.2 662.3 198.6Q661.8 199.0 661.4 199.6Q661.1 200.2 661.1 201.0L661.1 201.0L661.1 201.7Q661.1 202.7 661.5 203.4Q661.8 204.1 662.4 204.4Q663.1 204.8 663.9 204.8L663.9 204.8Q664.4 204.8 664.8 204.6Q665.3 204.5 665.6 204.2Q665.9 203.9 666.0 203.4L666.0 203.4L667.3 203.8Q667.1 204.5 666.7 205.0Q666.2 205.4 665.5 205.7Q664.8 206 663.9 206Z M675.9 205.8L674.5 205.8L674.5 194.2L678.4 194.2Q679.8 194.2 680.7 194.7Q681.5 195.2 681.9 196Q682.4 196.8 682.4 197.9L682.4 197.9Q682.4 198.9 681.9 199.7Q681.5 200.6 680.7 201.1Q679.8 201.6 678.4 201.6L678.4 201.6L675.6 201.6L675.6 200.3L678.4 200.3Q679.3 200.3 679.9 200.0Q680.5 199.7 680.7 199.1Q681.0 198.6 681.0 197.9L681.0 197.9Q681.0 197.2 680.7 196.6Q680.5 196.1 679.9 195.7Q679.3 195.4 678.4 195.4L678.4 195.4L675.9 195.4L675.9 205.8ZM687.0 206.0L687.0 206.0Q686.2 206.0 685.5 205.7Q684.8 205.4 684.4 204.8Q684.0 204.2 684.0 203.3L684.0 203.3Q684.0 202.6 684.3 202.1Q684.6 201.7 685.1 201.4Q685.6 201.1 686.2 201.0Q686.8 200.9 687.4 200.8L687.4 200.8Q688.2 200.7 688.7 200.6Q689.2 200.6 689.5 200.4Q689.7 200.3 689.7 200.0L689.7 200.0L689.7 199.9Q689.7 199.1 689.2 198.6Q688.8 198.2 687.8 198.2L687.8 198.2Q686.9 198.2 686.3 198.6Q685.8 199 685.6 199.5L685.6 199.5L684.3 199.0Q684.6 198.2 685.2 197.8Q685.8 197.3 686.5 197.2Q687.1 197.0 687.8 197.0L687.8 197.0Q688.2 197.0 688.8 197.1Q689.3 197.2 689.8 197.5Q690.3 197.8 690.7 198.4Q691.0 199.0 691.0 200.1L691.0 200.1L691.0 205.8L689.7 205.8L689.7 204.6L689.6 204.6Q689.5 204.9 689.2 205.2Q688.8 205.6 688.3 205.8Q687.8 206.0 687.0 206.0ZM687.2 204.8L687.2 204.8Q688.0 204.8 688.6 204.5Q689.1 204.2 689.4 203.7Q689.7 203.2 689.7 202.7L689.7 202.7L689.7 201.4Q689.6 201.5 689.3 201.6Q689.0 201.7 688.7 201.8Q688.3 201.8 687.9 201.9Q687.6 201.9 687.4 201.9L687.4 201.9Q686.8 202 686.4 202.2Q685.9 202.3 685.7 202.6Q685.4 202.9 685.4 203.4L685.4 203.4Q685.4 204.1 685.9 204.5Q686.4 204.8 687.2 204.8ZM697.0 206L697.0 206Q695.8 206 694.9 205.4Q694.0 204.8 693.5 203.8Q693.1 202.8 693.1 201.5L693.1 201.5Q693.1 200.2 693.6 199.2Q694.1 198.1 694.9 197.6Q695.8 197.0 697 197.0L697 197.0Q697.9 197.0 698.7 197.3Q699.4 197.7 699.9 198.3Q700.3 198.9 700.5 199.7L700.5 199.7L699.1 199.7Q699.0 199.1 698.4 198.6Q697.9 198.2 697.0 198.2L697.0 198.2Q696.2 198.2 695.7 198.6Q695.1 199.0 694.7 199.7Q694.4 200.5 694.4 201.5L694.4 201.5Q694.4 202.5 694.7 203.2Q695.1 204.0 695.6 204.4Q696.2 204.8 697.0 204.8L697.0 204.8Q697.5 204.8 698.0 204.6Q698.4 204.4 698.7 204.1Q699.0 203.8 699.1 203.3L699.1 203.3L700.5 203.3Q700.3 204.0 699.9 204.7Q699.4 205.3 698.7 205.6Q698.0 206 697.0 206ZM705.2 201.2L703.7 202.6L703.6 201.0L703.9 201.0L707.7 197.1L709.4 197.1L705.3 201.2L705.2 201.2ZM703.8 205.8L702.4 205.8L702.4 194.2L703.8 194.2L703.8 205.8ZM709.7 205.8L708.0 205.8L704.5 201.5L705.5 200.6L709.7 205.8ZM713.7 206.0L713.7 206.0Q712.9 206.0 712.2 205.7Q711.5 205.4 711.1 204.8Q710.7 204.2 710.7 203.3L710.7 203.3Q710.7 202.6 711 202.1Q711.3 201.7 711.8 201.4Q712.3 201.1 712.9 201.0Q713.5 200.9 714.1 200.8L714.1 200.8Q714.9 200.7 715.4 200.6Q715.9 200.6 716.1 200.4Q716.3 200.3 716.3 200.0L716.3 200.0L716.3 199.9Q716.3 199.1 715.9 198.6Q715.4 198.2 714.5 198.2L714.5 198.2Q713.5 198.2 713.0 198.6Q712.4 199 712.2 199.5L712.2 199.5L711.0 199.0Q711.3 198.2 711.9 197.8Q712.4 197.3 713.1 197.2Q713.8 197.0 714.5 197.0L714.5 197.0Q714.9 197.0 715.4 197.1Q716.0 197.2 716.5 197.5Q717 197.8 717.3 198.4Q717.7 199.0 717.7 200.1L717.7 200.1L717.7 205.8L716.3 205.8L716.3 204.6L716.3 204.6Q716.1 204.9 715.8 205.2Q715.5 205.6 715.0 205.8Q714.4 206.0 713.7 206.0ZM713.9 204.8L713.9 204.8Q714.7 204.8 715.2 204.5Q715.8 204.2 716.1 203.7Q716.3 203.2 716.3 202.7L716.3 202.7L716.3 201.4Q716.3 201.5 716.0 201.6Q715.7 201.7 715.3 201.8Q714.9 201.8 714.6 201.9Q714.2 201.9 714.0 201.9L714.0 201.9Q713.5 202 713.0 202.2Q712.6 202.3 712.3 202.6Q712.0 202.9 712.0 203.4L712.0 203.4Q712.0 204.1 712.6 204.5Q713.1 204.8 713.9 204.8ZM723.7 209.3L723.7 209.3Q722.7 209.3 722.0 209.0Q721.3 208.8 720.8 208.4Q720.4 208.0 720.1 207.5L720.1 207.5L721.2 206.8Q721.3 207.0 721.6 207.3Q721.9 207.6 722.4 207.9Q722.9 208.1 723.7 208.1L723.7 208.1Q724.7 208.1 725.4 207.6Q726.1 207.1 726.1 206.0L726.1 206.0L726.1 204.2L726.0 204.2Q725.8 204.4 725.6 204.8Q725.3 205.1 724.8 205.4Q724.3 205.7 723.4 205.7L723.4 205.7Q722.4 205.7 721.5 205.2Q720.7 204.7 720.2 203.7Q719.7 202.8 719.7 201.4L719.7 201.4Q719.7 200.1 720.2 199.1Q720.7 198.1 721.5 197.5Q722.4 197.0 723.5 197.0L723.5 197.0Q724.3 197.0 724.8 197.3Q725.3 197.5 725.6 197.9Q725.9 198.3 726 198.5L726 198.5L726.1 198.5L726.1 197.1L727.4 197.1L727.4 206.1Q727.4 207.2 726.9 207.9Q726.4 208.6 725.6 208.9Q724.7 209.3 723.7 209.3ZM723.6 204.5L723.6 204.5Q724.4 204.5 725.0 204.1Q725.5 203.7 725.8 203.0Q726.1 202.4 726.1 201.4L726.1 201.4Q726.1 200.4 725.8 199.7Q725.5 199 725.0 198.6Q724.4 198.2 723.6 198.2L723.6 198.2Q722.8 198.2 722.2 198.6Q721.6 199.0 721.3 199.8Q721.1 200.5 721.1 201.4L721.1 201.4Q721.1 202.3 721.4 203.0Q721.6 203.7 722.2 204.1Q722.8 204.5 723.6 204.5ZM733.5 206L733.5 206Q732.3 206 731.4 205.4Q730.5 204.9 730.0 203.9Q729.5 202.9 729.5 201.5L729.5 201.5Q729.5 200.2 730.0 199.2Q730.5 198.1 731.3 197.6Q732.2 197.0 733.4 197.0L733.4 197.0Q734.1 197.0 734.8 197.2Q735.4 197.4 736.0 197.9Q736.5 198.4 736.8 199.3Q737.2 200.1 737.2 201.3L737.2 201.3L737.2 201.9L730.4 201.9L730.4 200.8L735.8 200.8Q735.8 200.0 735.5 199.4Q735.2 198.9 734.7 198.5Q734.1 198.2 733.4 198.2L733.4 198.2Q732.6 198.2 732.0 198.6Q731.4 199.0 731.1 199.6Q730.8 200.2 730.8 201.0L730.8 201.0L730.8 201.7Q730.8 202.7 731.2 203.4Q731.5 204.1 732.1 204.4Q732.7 204.8 733.5 204.8L733.5 204.8Q734.1 204.8 734.5 204.6Q734.9 204.5 735.2 204.2Q735.6 203.9 735.7 203.4L735.7 203.4L737.0 203.8Q736.8 204.5 736.3 205.0Q735.9 205.4 735.1 205.7Q734.4 206 733.5 206ZM745.4 199.0L745.4 199.0L744.2 199.4Q744.1 199.1 743.8 198.8Q743.6 198.5 743.3 198.3Q742.9 198.1 742.3 198.1L742.3 198.1Q741.5 198.1 741.0 198.5Q740.4 198.9 740.4 199.4L740.4 199.4Q740.4 199.9 740.8 200.2Q741.2 200.5 741.9 200.7L741.9 200.7L743.2 201.0Q744.4 201.3 745.0 201.9Q745.5 202.5 745.5 203.4L745.5 203.4Q745.5 204.1 745.1 204.7Q744.7 205.3 743.9 205.7Q743.2 206 742.1 206L742.1 206Q740.8 206 739.9 205.4Q739.1 204.8 738.8 203.7L738.8 203.7L740.1 203.4Q740.3 204.1 740.8 204.5Q741.3 204.8 742.1 204.8L742.1 204.8Q743.1 204.8 743.6 204.4Q744.2 204.0 744.2 203.5L744.2 203.5Q744.2 203 743.8 202.7Q743.5 202.4 742.9 202.2L742.9 202.2L741.4 201.9Q740.2 201.6 739.7 201.0Q739.1 200.4 739.1 199.5L739.1 199.5Q739.1 198.8 739.5 198.2Q739.9 197.6 740.7 197.3Q741.4 197.0 742.3 197.0L742.3 197.0Q743.6 197.0 744.3 197.5Q745.1 198.1 745.4 199.0Z "/></svg>